# xmcd
#
# Track frame offsets:
#	150
#	22413
#	42529
#	56460
#	80584
#	99610
#	115108
#	130733
#	150676
#	170614
#	194897
#	213521
#	236096
#	252158
#	269802
#	287618
#	308157
#	328218
#
# Disc length: 4740 seconds
#
# Revision: 2
# Processed by: cddbd v1.5.2PL0 Copyright (c) Steve Scherf et al.
# Submitted via: EasyCDDAExtractor 15.3.0.1
#
DISCID=1a128212
DTITLE=Fey - Lo Esencial De Fey - CD 3
DYEAR=2009
DGENRE=Latin
TTITLE0=La Fuerza Del Destino
TTITLE1=Se Lo Que Vendra
TTITLE2=Me Cuesta Tanto Olvidarte
TTITLE3=Siento
TTITLE4=Y Aqui Estoy
TTITLE5=Dime
TTITLE6=Barco A Venus
TTITLE7=Romeo and Juliet
TTITLE8=Como Un Angel
TTITLE9=Vertigo
TTITLE10=Un Año Mas
TTITLE11=Alma Gemela
TTITLE12=Entre Dos
TTITLE13=Noche Ideal
TTITLE14=Vienen Y Van
TTITLE15=Loca Por Amarte
TTITLE16=The Other Side (Se Lo Que Vendra)
TTITLE17=Media Naranja (Version Trance)
EXTD=
EXTT0=
EXTT1=
EXTT2=
EXTT3=
EXTT4=
EXTT5=
EXTT6=
EXTT7=
EXTT8=
EXTT9=
EXTT10=
EXTT11=
EXTT12=
EXTT13=
EXTT14=
EXTT15=
EXTT16=
EXTT17=
PLAYORDER=
